<svg width="136" height="151" viewBox="0 0 136 151" fill="none" xmlns="http://www.w3.org/2000/svg">
<path d="M1.3933 68.5776C13.9514 63.4278 25.4115 55.5411 34.694 45.6372C42.6098 37.1914 53.4682 23.504 53.4573 11.2635C53.4552 8.952 52.8914 6.50836 51.2496 4.88141C49.2164 2.86706 45.9929 2.56801 43.1957 3.17521C34.7701 5.00442 29.0662 12.6829 25.8224 20.184C22.2275 28.4975 20.8008 38.0473 23.5478 46.6797C33.1836 76.9578 69.4086 61.6911 88.0462 49.959C95.0279 45.5642 102.428 40.6783 107.068 33.6967C108.616 31.3684 109.857 28.6602 109.616 25.875C109.314 22.3862 106.655 19.4107 103.464 17.9674C93.8645 13.6259 82.4331 19.5384 75.5288 26.1953C62.4281 38.826 57.2988 57.9105 54.2218 75.2788C54.1415 75.7325 54.0628 76.1863 53.9859 76.6404C52.8427 83.3915 53.6102 90.742 57.5555 96.3384C71.8027 116.547 108.398 104.722 123.671 92.1832C127.345 89.1671 130.727 85.6637 132.855 81.4129C134.982 77.1623 135.745 72.0753 134.149 67.5981C131.599 60.4484 123.466 56.3993 115.881 56.7027C108.297 57.0063 101.282 60.8424 95.2415 65.4395C83.2935 74.5323 73.5832 88.1477 73.7434 103.161C73.849 113.05 78.4453 122.805 86.0046 129.182C103.484 143.927 128.715 135.784 147.1 127.488C153.166 124.752 159.575 120.432 161.961 113.926C162.991 111.117 163.151 107.903 161.925 105.175C160.29 101.535 156.386 99.2683 152.425 98.7912C135.584 96.7617 122.148 115.128 120.666 130.2C119.458 142.493 124.627 155.02 135.249 161.671C147.516 169.353 163.078 169.909 177.081 168.596" stroke="white" stroke-width="4" stroke-miterlimit="10"/>
</svg>
